<svg width="25" height="20" viewBox="0 0 25 20" fill="none" xmlns="http://www.w3.org/2000/svg">
<path fill-rule="evenodd" clip-rule="evenodd" d="M10 9C12.2091 9 14 7.20914 14 5C14 2.79086 12.2091 1 10 1C7.79086 1 6 2.79086 6 5C6 7.20914 7.79086 9 10 9Z" stroke="#091a3b" stroke-width="1.5" stroke-linecap="round" stroke-linejoin="round"/>
<path d="M2 19C2 14.5817 5.58172 11 10 11C14.4183 11 18 14.5817 18 19" stroke="#091a3b" stroke-width="1.5" stroke-linecap="round" stroke-linejoin="round"/>
<path d="M23 6L19.3268 10.641C19.1615 10.8492 18.9091 10.9794 18.6348 10.9978C18.3605 11.0161 18.0912 10.921 17.8967 10.7368L16 8.93986" stroke="#091a3b" stroke-width="1.5" stroke-linecap="round" stroke-linejoin="round"/>
</svg>
